# xmcd
#
# Track frame offsets: 
#        150
#        15627
#        38496
#        56270
#        77705
#        97336
#        111839
#        125428
#        143578
#        162357
#        183457
#        198093
#
# Disc length: 2961 seconds
#
# Revision: 0
# Processed by: cddbd v1.5.2PL0 Copyright (c) Steve Scherf et al.
# Submitted via: ExactAudioCopy v1.2
#
DISCID=960b8f0c
DTITLE=Green Blues Band - Second Try
DYEAR=2019
DGENRE=Blues
TTITLE0=Intro
TTITLE1=Heartattack and Vine
TTITLE2=San Francisco
TTITLE3=Automatic
TTITLE4=Blues Time
TTITLE5=Second Try
TTITLE6=Somebody Else
TTITLE7=The End
TTITLE8=Hard Time
TTITLE9=Loss of Confidence
TTITLE10=I Just Wanna Make Love to You
TTITLE11=Walking Blues
EXTD=
EXTT0=
EXTT1=
EXTT2=
EXTT3=
EXTT4=
EXTT5=
EXTT6=
EXTT7=
EXTT8=
EXTT9=
EXTT10=
EXTT11=
PLAYORDER=
